<svg width="25" height="24" viewBox="0 0 25 24" fill="none" xmlns="http://www.w3.org/2000/svg">
<path d="M12.5 7.04899C12.7653 7.04899 13.0197 6.94361 13.2072 6.75603C13.3948 6.56846 13.5002 6.31406 13.5002 6.04879C13.5002 5.78352 13.3948 5.52911 13.2072 5.34154C13.0197 5.15396 12.7653 5.04858 12.5 5.04858C12.2347 5.04858 11.9803 5.15396 11.7927 5.34154C11.6052 5.52911 11.4998 5.78352 11.4998 6.04879C11.4998 6.31406 11.6052 6.56846 11.7927 6.75603C11.9803 6.94361 12.2347 7.04899 12.5 7.04899ZM19.7 16.0082V9.60019H19.8104C20.882 9.60019 21.3224 8.22259 20.4464 7.60219L13.4264 2.61979C13.1557 2.42752 12.832 2.32422 12.5 2.32422C12.168 2.32422 11.8442 2.42752 11.5736 2.61979L4.55119 7.60219C3.67759 8.22259 4.11559 9.59899 5.18719 9.59899H5.29999V16.007C4.57879 16.4702 4.09999 17.279 4.09999 18.1994V19.799C4.09999 19.9581 4.16321 20.1107 4.27573 20.2233C4.38825 20.3358 4.54086 20.399 4.69999 20.399H20.3C20.4591 20.399 20.6117 20.3358 20.7243 20.2233C20.8368 20.1107 20.9 19.9581 20.9 19.799V18.1994C20.9 17.279 20.4224 16.4702 19.7 16.0082ZM12.2672 3.59899C12.3347 3.55115 12.4154 3.52545 12.4982 3.52545C12.5809 3.52545 12.6617 3.55115 12.7292 3.59899L19.496 8.39899H5.50159L12.2684 3.59899H12.2672ZM18.4976 9.59899V15.6062C18.4313 15.6013 18.3649 15.5989 18.2984 15.599H16.0976V9.60019H18.4976V9.59899ZM6.49999 15.6062V9.60019H8.89999V15.6002H6.69919C6.63199 15.6002 6.56479 15.6026 6.49879 15.6074L6.49999 15.6062ZM6.70039 16.799H18.3008C19.0736 16.799 19.7 17.4254 19.7 18.1994V19.199H5.29999V18.1994C5.29999 17.4254 5.92759 16.799 6.70039 16.799ZM11.9 15.599H10.1V9.60019H11.9V15.6002V15.599ZM13.1 15.599V9.60019H14.9V15.6002H13.1V15.599Z" fill="currentColor"/>
</svg>
