<svg width="25" height="24" viewBox="0 0 25 24" fill="none" xmlns="http://www.w3.org/2000/svg">
<path d="M12.5 22C18.0228 22 22.5 17.5228 22.5 12C22.5 6.47715 18.0228 2 12.5 2C6.97715 2 2.5 6.47715 2.5 12C2.5 17.5228 6.97715 22 12.5 22Z" stroke="currentColor" stroke-width="1.2" stroke-linecap="round" stroke-linejoin="round"/>
<path d="M10.5 8V12H14C14.5304 12 15.0391 11.7893 15.4142 11.4142C15.7893 11.0391 16 10.5304 16 10C16 9.46957 15.7893 8.96086 15.4142 8.58579C15.0391 8.21071 14.5304 8 14 8H13M10.5 8H8.5M10.5 8V6M10.5 8H13M13 8V6" stroke="currentColor" stroke-width="1.2" stroke-linecap="round" stroke-linejoin="round"/>
<path d="M10.5 16V12H15C15.5304 12 16.0391 12.2107 16.4142 12.5858C16.7893 12.9609 17 13.4696 17 14C17 14.5304 16.7893 15.0391 16.4142 15.4142C16.0391 15.7893 15.5304 16 15 16H13M10.5 16V18M10.5 16H8.5H13M10.5 16H13M13 16V18" stroke="currentColor" stroke-width="1.2" stroke-linecap="round" stroke-linejoin="round"/>
</svg>
