<svg width="24" height="24" viewBox="0 0 24 24" fill="none" xmlns="http://www.w3.org/2000/svg">
<path fill-rule="evenodd" clip-rule="evenodd" d="M4 7.42829H17.7143C18.3205 7.42829 18.9019 7.66911 19.3305 8.09776C19.7592 8.52642 20 9.1078 20 9.71401V16.5712C20 17.1774 19.7592 17.7587 19.3305 18.1874C18.9019 18.616 18.3205 18.8569 17.7143 18.8569H6.28571C5.67951 18.8569 5.09812 18.616 4.66947 18.1874C4.24082 17.7587 4 17.1774 4 16.5712V7.42829ZM5.14286 5.14258H15.4286C15.7317 5.14258 16.0224 5.26299 16.2367 5.47731C16.451 5.69164 16.5714 5.98233 16.5714 6.28544V7.42829H4V6.28544C4 5.98233 4.12041 5.69164 4.33474 5.47731C4.54906 5.26299 4.83975 5.14258 5.14286 5.14258V5.14258Z" stroke="currentColor" stroke-width="1.2" stroke-linecap="round" stroke-linejoin="round"/>
<path d="M16.5713 14.2857C17.2025 14.2857 17.7142 13.774 17.7142 13.1429C17.7142 12.5117 17.2025 12 16.5713 12C15.9401 12 15.4285 12.5117 15.4285 13.1429C15.4285 13.774 15.9401 14.2857 16.5713 14.2857Z" fill="currentColor"/>
</svg>
