<svg width="21" height="18" viewBox="0 0 21 18" fill="none" xmlns="http://www.w3.org/2000/svg">
<path d="M18.9931 12.5C17.6021 12.5 16.2614 12.3 15.0046 11.93C14.6191 11.82 14.1778 11.9 13.8706 12.175L11.4126 14.38C8.24524 12.94 5.66441 10.625 4.05 7.795L6.50793 5.59C6.81517 5.315 6.90455 4.92 6.78165 4.575C6.36828 3.45 6.14483 2.245 6.14483 1C6.14483 0.445 5.64766 0 5.02759 0H1.11724C0.497172 0 0 0.445 0 1C0 10.39 8.50221 18 18.9931 18C19.6132 18 20.1103 17.555 20.1103 17V13.5C20.1103 12.945 19.6132 12.5 18.9931 12.5Z" fill="currentColor"/>
</svg>
