<svg width="0" height="0" class="hidden">
  <symbol fill="none" xmlns="http://www.w3.org/2000/svg" viewBox="0 0 47 47" id="ic_arr_ver">
    <path d="M23.5001 30.7711L35.2696 19.0015L32.5025 16.2305L23.5001 25.2388L14.4996 16.2305L11.7305 18.9996L23.5001 30.7711Z" fill="currentColor"></path>
  </symbol>
  <symbol fill="none" xmlns="http://www.w3.org/2000/svg" viewBox="0 0 10 10" id="ic_check">
    <path d="M1 3.5L3.66994 8.32073C4.06182 9.02828 5.08788 9.00207 5.44312 8.27544L9 1" stroke="currentColor" stroke-linecap="round"></path>
  </symbol>
  <symbol fill="none" xmlns="http://www.w3.org/2000/svg" viewBox="0 0 44 43" id="ic_close">
    <circle cx="21.5" cy="21.5" r="20.5" stroke="currentColor" stroke-width="2"></circle>
    <line x1="16.4142" y1="16" x2="28" y2="27.5858" stroke="currentColor" stroke-width="2" stroke-linecap="round"></line>
    <line x1="1" y1="-1" x2="17.3848" y2="-1" transform="matrix(-0.707107 0.707107 0.707107 0.707107 29.1821 16)" stroke="currentColor" stroke-width="2" stroke-linecap="round"></line>
  </symbol>
  <symbol fill="none" xmlns="http://www.w3.org/2000/svg" viewBox="0 0 25 24" id="ic_method_bank">
    <path d="M12.5 7.04899C12.7653 7.04899 13.0197 6.94361 13.2072 6.75603C13.3948 6.56846 13.5002 6.31406 13.5002 6.04879C13.5002 5.78352 13.3948 5.52911 13.2072 5.34154C13.0197 5.15396 12.7653 5.04858 12.5 5.04858C12.2347 5.04858 11.9803 5.15396 11.7927 5.34154C11.6052 5.52911 11.4998 5.78352 11.4998 6.04879C11.4998 6.31406 11.6052 6.56846 11.7927 6.75603C11.9803 6.94361 12.2347 7.04899 12.5 7.04899ZM19.7 16.0082V9.60019H19.8104C20.882 9.60019 21.3224 8.22259 20.4464 7.60219L13.4264 2.61979C13.1557 2.42752 12.832 2.32422 12.5 2.32422C12.168 2.32422 11.8442 2.42752 11.5736 2.61979L4.55119 7.60219C3.67759 8.22259 4.11559 9.59899 5.18719 9.59899H5.29999V16.007C4.57879 16.4702 4.09999 17.279 4.09999 18.1994V19.799C4.09999 19.9581 4.16321 20.1107 4.27573 20.2233C4.38825 20.3358 4.54086 20.399 4.69999 20.399H20.3C20.4591 20.399 20.6117 20.3358 20.7243 20.2233C20.8368 20.1107 20.9 19.9581 20.9 19.799V18.1994C20.9 17.279 20.4224 16.4702 19.7 16.0082ZM12.2672 3.59899C12.3347 3.55115 12.4154 3.52545 12.4982 3.52545C12.5809 3.52545 12.6617 3.55115 12.7292 3.59899L19.496 8.39899H5.50159L12.2684 3.59899H12.2672ZM18.4976 9.59899V15.6062C18.4313 15.6013 18.3649 15.5989 18.2984 15.599H16.0976V9.60019H18.4976V9.59899ZM6.49999 15.6062V9.60019H8.89999V15.6002H6.69919C6.63199 15.6002 6.56479 15.6026 6.49879 15.6074L6.49999 15.6062ZM6.70039 16.799H18.3008C19.0736 16.799 19.7 17.4254 19.7 18.1994V19.199H5.29999V18.1994C5.29999 17.4254 5.92759 16.799 6.70039 16.799ZM11.9 15.599H10.1V9.60019H11.9V15.6002V15.599ZM13.1 15.599V9.60019H14.9V15.6002H13.1V15.599Z" fill="currentColor"></path>
  </symbol>
  <symbol fill="none" xmlns="http://www.w3.org/2000/svg" viewBox="0 0 24 24" id="ic_method_cash">
    <path fill-rule="evenodd" clip-rule="evenodd" d="M4 7.42829H17.7143C18.3205 7.42829 18.9019 7.66911 19.3305 8.09776C19.7592 8.52642 20 9.1078 20 9.71401V16.5712C20 17.1774 19.7592 17.7587 19.3305 18.1874C18.9019 18.616 18.3205 18.8569 17.7143 18.8569H6.28571C5.67951 18.8569 5.09812 18.616 4.66947 18.1874C4.24082 17.7587 4 17.1774 4 16.5712V7.42829ZM5.14286 5.14258H15.4286C15.7317 5.14258 16.0224 5.26299 16.2367 5.47731C16.451 5.69164 16.5714 5.98233 16.5714 6.28544V7.42829H4V6.28544C4 5.98233 4.12041 5.69164 4.33474 5.47731C4.54906 5.26299 4.83975 5.14258 5.14286 5.14258V5.14258Z" stroke="currentColor" stroke-width="1.2" stroke-linecap="round" stroke-linejoin="round"></path>
    <path d="M16.5713 14.2857C17.2025 14.2857 17.7142 13.774 17.7142 13.1429C17.7142 12.5117 17.2025 12 16.5713 12C15.9401 12 15.4285 12.5117 15.4285 13.1429C15.4285 13.774 15.9401 14.2857 16.5713 14.2857Z" fill="currentColor"></path>
  </symbol>
  <symbol fill="none" xmlns="http://www.w3.org/2000/svg" viewBox="0 0 25 24" id="ic_method_coin">
    <path d="M12.5 22C18.0228 22 22.5 17.5228 22.5 12C22.5 6.47715 18.0228 2 12.5 2C6.97715 2 2.5 6.47715 2.5 12C2.5 17.5228 6.97715 22 12.5 22Z" stroke="currentColor" stroke-width="1.2" stroke-linecap="round" stroke-linejoin="round"></path>
    <path d="M10.5 8V12H14C14.5304 12 15.0391 11.7893 15.4142 11.4142C15.7893 11.0391 16 10.5304 16 10C16 9.46957 15.7893 8.96086 15.4142 8.58579C15.0391 8.21071 14.5304 8 14 8H13M10.5 8H8.5M10.5 8V6M10.5 8H13M13 8V6" stroke="currentColor" stroke-width="1.2" stroke-linecap="round" stroke-linejoin="round"></path>
    <path d="M10.5 16V12H15C15.5304 12 16.0391 12.2107 16.4142 12.5858C16.7893 12.9609 17 13.4696 17 14C17 14.5304 16.7893 15.0391 16.4142 15.4142C16.0391 15.7893 15.5304 16 15 16H13M10.5 16V18M10.5 16H8.5H13M10.5 16H13M13 16V18" stroke="currentColor" stroke-width="1.2" stroke-linecap="round" stroke-linejoin="round"></path>
  </symbol>
  <symbol fill="none" xmlns="http://www.w3.org/2000/svg" viewBox="0 0 21 18" id="ic_phone">
    <path d="M18.9931 12.5C17.6021 12.5 16.2614 12.3 15.0046 11.93C14.6191 11.82 14.1778 11.9 13.8706 12.175L11.4126 14.38C8.24524 12.94 5.66441 10.625 4.05 7.795L6.50793 5.59C6.81517 5.315 6.90455 4.92 6.78165 4.575C6.36828 3.45 6.14483 2.245 6.14483 1C6.14483 0.445 5.64766 0 5.02759 0H1.11724C0.497172 0 0 0.445 0 1C0 10.39 8.50221 18 18.9931 18C19.6132 18 20.1103 17.555 20.1103 17V13.5C20.1103 12.945 19.6132 12.5 18.9931 12.5Z" fill="currentColor"></path>
  </symbol>
  <symbol fill="none" xmlns="http://www.w3.org/2000/svg" viewBox="0 0 39 24" id="ic_replace">
    <path d="M28 7.83L31.59 11.41L33 10L27 4L21 10L22.41 11.41L26 7.83V20H28V7.83Z" fill="currentColor"></path>
    <path d="M11 16.17L7.41 12.59L6 14L12 20L18 14L16.59 12.59L13 16.17V4H11V16.17Z" fill="currentColor"></path>
  </symbol>
</svg>